<?xml version="1.0" standalone="no"?>
<!DOCTYPE svg PUBLIC "-//W3C//DTD SVG 1.1//EN" "http://www.w3.org/Graphics/SVG/1.1/DTD/svg11.dtd" >
<svg xmlns="http://www.w3.org/2000/svg">
<metadata></metadata>
<defs>
<font id="tablet_gothicbold" horiz-adv-x="1024" >
<font-face units-per-em="2048" ascent="1546" descent="-502" />
<missing-glyph horiz-adv-x="378" />
<glyph unicode="&#xfb01;" horiz-adv-x="1247" d="M29 834v221h125v30q0 234 99 339.5t298 105.5q76 0 158 -21v-237q-51 14 -101 14q-71 0 -102 -39.5t-31 -130.5v-61h664v-1055h-322v834h-342v-834h-321v834h-125zM817 1243v260h322v-260h-322z" />
<glyph unicode="&#xfb02;" horiz-adv-x="1247" d="M29 834v221h125v30q0 234 99 339.5t298 105.5q76 0 158 -21v-237q-51 14 -101 14q-71 0 -102 -39.5t-31 -130.5v-61h215v-221h-215v-834h-321v834h-125zM817 0v1503h322v-1503h-322z" />
<glyph unicode="&#xfb03;" horiz-adv-x="1910" d="M29 834v221h125v20q0 233 101 339t300 106q102 0 207 -27l-37 -231q-61 18 -117 18q-70 0 -101.5 -45t-31.5 -148v-32h342v30q0 234 99 339.5t298 105.5q76 0 158 -21v-237q-51 14 -100 14q-71 0 -102 -39.5t-31 -130.5v-61h663v-1055h-321v834h-342v-834h-322v834h-342 v-834h-321v834h-125zM1481 1243v260h321v-260h-321z" />
<glyph unicode="&#xfb04;" horiz-adv-x="1910" d="M29 834v221h125v20q0 233 101 339t300 106q102 0 207 -27l-37 -231q-61 18 -117 18q-70 0 -101.5 -45t-31.5 -148v-32h342v30q0 234 99 339.5t298 105.5q76 0 158 -21v-237q-51 14 -100 14q-71 0 -102 -39.5t-31 -130.5v-61h215v-221h-215v-834h-322v834h-342v-834h-321 v834h-125zM1481 0v1503h321v-1503h-321z" />
<glyph horiz-adv-x="2048" />
<glyph horiz-adv-x="2048" />
<glyph unicode="&#xd;" horiz-adv-x="2048" />
<glyph unicode=" "  horiz-adv-x="378" />
<glyph unicode="&#x09;" horiz-adv-x="378" />
<glyph unicode="&#xa0;" horiz-adv-x="378" />
<glyph unicode="!" horiz-adv-x="677" d="M166 1503h346l-23 -1075h-296zM176 0v287h326v-287h-326z" />
<glyph unicode="&#x22;" horiz-adv-x="774" d="M115 1503h231l-31 -440h-184zM428 1503h231l-30 -440h-185z" />
<glyph unicode="#" horiz-adv-x="1343" d="M88 227l35 215h158l38 277h-167l34 217h166l29 201h256l-29 -201h230l28 201h258l-30 -201h159l-32 -217h-158l-41 -277h172l-33 -215h-170l-35 -227h-258l35 227h-229l-35 -227h-256l35 227h-160zM537 442h229l39 277h-230z" />
<glyph unicode="$" horiz-adv-x="1218" d="M70 465l307 43q8 -56 23.5 -97t43.5 -74t74.5 -50t110.5 -17q98 0 150 41t52 119q0 50 -25 85.5t-67 56t-96 35.5t-114 29t-120.5 31t-114.5 47t-96 72t-67 110.5t-25 158.5q0 166 102.5 276.5t274.5 143.5v157h303v-159q289 -65 338 -392l-290 -59q-34 217 -213 217 q-88 0 -136.5 -36.5t-48.5 -108.5q0 -48 24.5 -82t65.5 -54t94.5 -34.5t113 -29t118.5 -31.5t112.5 -46t94.5 -70t65.5 -106.5t24.5 -151.5q0 -180 -99 -295t-264 -155v-174h-303v162q-184 25 -285.5 132.5t-127.5 305.5z" />
<glyph unicode="%" horiz-adv-x="1853" d="M41 1085q0 190 107 304t290 114q185 0 277 -105t92 -300q0 -200 -98 -309t-289 -109t-285 105t-94 300zM279 1094q0 -131 34.5 -189.5t112.5 -58.5q76 0 110.5 57t34.5 195q0 128 -33.5 181.5t-109.5 53.5q-149 0 -149 -239zM397 86l879 1464l201 -114l-881 -1469z M1047 389q0 190 107 304t290 114q184 0 276 -105.5t92 -298.5q0 -201 -98 -310t-289 -109t-284.5 105t-93.5 300zM1284 397q0 -130 35 -188.5t113 -58.5q75 0 110 57.5t35 193.5q0 128 -33.5 182t-109.5 54q-150 0 -150 -240z" />
<glyph unicode="&#x26;" horiz-adv-x="1505" d="M72 371q0 149 74.5 264.5t250.5 208.5q-147 152 -147 313q0 164 118.5 267.5t327.5 103.5q188 0 298 -88.5t110 -231.5q0 -60 -17 -133l-282 31q12 35 12 84q0 54 -32.5 85.5t-94.5 31.5q-61 0 -93 -32t-32 -91q0 -51 28 -100t85 -111l379 -402q52 101 71 293l291 -26 q-21 -154 -53.5 -266.5t-91.5 -223.5l180 -188l-219 -199l-172 182q-228 -168 -514 -168q-122 0 -215.5 30.5t-149.5 85.5t-84 125.5t-28 154.5zM408 420q0 -89 56 -136.5t146 -47.5q144 0 264 104l-311 326q-155 -98 -155 -246z" />
<glyph unicode="'" horiz-adv-x="460" d="M115 1503h231l-31 -440h-184z" />
<glyph unicode="(" horiz-adv-x="651" d="M57 672q0 182 49.5 356t126.5 313.5t193 290.5l192 -59q-106 -222 -158 -436.5t-52 -446.5q0 -240 52 -463.5t156 -457.5l-184 -74q-202 242 -288.5 468.5t-86.5 508.5z" />
<glyph unicode=")" horiz-adv-x="651" d="M33 -240q106 221 158.5 435.5t52.5 447.5q0 450 -209 920l182 75q203 -243 289 -469.5t86 -509.5q0 -266 -95 -495.5t-272 -464.5z" />
<glyph unicode="*" horiz-adv-x="790" d="M63 1198l58 174l235 -133l-51 264h182l-53 -266l236 133l57 -176l-270 -27l198 -186l-149 -109l-113 238l-114 -236l-148 109l199 188z" />
<glyph unicode="+" horiz-adv-x="1187" d="M199 604v205h290v291h205v-291h293v-205h-293v-293h-205v293h-290z" />
<glyph unicode="," horiz-adv-x="548" d="M115 0v287h329v-236l-163 -348l-125 37l55 260h-96z" />
<glyph unicode="-" horiz-adv-x="657" d="M51 416v254h555v-254h-555z" />
<glyph unicode="." horiz-adv-x="563" d="M119 0v287h327v-287h-327z" />
<glyph unicode="/" horiz-adv-x="899" d="M-57 -109l725 1727l260 -100l-727 -1733z" />
<glyph unicode="0" horiz-adv-x="1345" d="M82 745q0 372 163.5 578.5t448.5 206.5q287 0 428.5 -196t141.5 -564q0 -384 -151 -589.5t-447 -205.5q-294 0 -439 198t-145 572zM418 756q0 -281 60.5 -409t197.5 -128q134 0 194 127.5t60 417.5q0 273 -57.5 392.5t-188.5 119.5q-130 0 -198 -124t-68 -396z" />
<glyph unicode="1" horiz-adv-x="829" d="M25 1278q96 30 219 96.5t194 128.5h209v-1503h-321v1124q-69 -50 -234 -104z" />
<glyph unicode="2" horiz-adv-x="1144" d="M109 102q0 116 14 185q13 73 54 144t95.5 129.5t117.5 116t123 112t109 107.5t79 112t30 118q0 78 -43 119t-115 41q-70 0 -108 -38.5t-42.5 -101.5t9.5 -145l-307 -20q-18 75 -14.5 144.5t21 130.5t56.5 111.5t93.5 86.5t132 56t170.5 20q223 0 349 -106.5t126 -297.5 q0 -89 -31 -170t-80.5 -142.5t-110 -118.5t-122.5 -108t-114 -99.5t-88 -104.5t-42 -113h553v-270h-913q0 13 -1 47t-1 55z" />
<glyph unicode="3" horiz-adv-x="1165" d="M80 442l317 21q9 -130 51 -187t138 -57q75 0 119.5 52.5t44.5 148.5q0 127 -82 176.5t-252 40.5l-27 244q173 6 251.5 59t78.5 176q0 170 -162 170q-96 0 -131.5 -63t-11.5 -222l-305 -20q-16 93 -12.5 175t36.5 151t88.5 118.5t143.5 77t200 27.5q224 0 351.5 -97 t127.5 -278q0 -281 -284 -367q153 -35 234 -131.5t81 -236.5q0 -215 -133 -330t-364 -115q-257 0 -372 115.5t-126 351.5z" />
<glyph unicode="4" horiz-adv-x="1150" d="M29 236v221l532 1046h391v-995h152v-272h-152v-236h-319v236h-604zM322 508h311v618h-8z" />
<glyph unicode="5" horiz-adv-x="1167" d="M90 442l316 21q10 -137 56 -190.5t124 -53.5q88 0 129 71t41 189q0 147 -46.5 206.5t-129.5 59.5q-59 0 -106.5 -34t-76.5 -90l-270 26l57 856h826v-270h-561l-46 -363q42 56 115.5 88.5t161.5 32.5q87 0 159 -29.5t126.5 -87t85 -151.5t30.5 -215q0 -254 -128 -393.5 t-388 -139.5q-105 0 -185.5 24.5t-132 65.5t-86 102.5t-50 127t-21.5 147.5z" />
<glyph unicode="6" horiz-adv-x="1218" d="M106 672q0 415 144 636.5t430 221.5q450 0 422 -445l-301 -20q8 107 -22.5 164t-112.5 57q-105 0 -161.5 -105.5t-68.5 -351.5q48 67 129.5 101.5t165.5 34.5q79 0 149 -26.5t128.5 -80t92.5 -145t34 -209.5q0 -266 -137 -397.5t-380 -131.5q-275 0 -393.5 164.5 t-118.5 532.5zM426 494q0 -275 195 -275q57 0 96.5 23t60 64t29 85t8.5 96q0 248 -192 248q-92 0 -144.5 -62t-52.5 -179z" />
<glyph unicode="7" horiz-adv-x="974" d="M59 1233v270h895v-186q-114 -155 -189 -309t-115.5 -322t-58 -321.5t-24.5 -364.5h-334q1 378 103 679.5t287 553.5h-564z" />
<glyph unicode="8" horiz-adv-x="1232" d="M76 408q0 315 293 409q-117 37 -174.5 122t-57.5 204q0 176 132 281.5t366 105.5q228 0 343.5 -100.5t115.5 -264.5q0 -123 -63 -212t-181 -130q307 -79 307 -393q0 -100 -32 -181t-97 -143.5t-173.5 -96.5t-252.5 -34q-140 0 -243 32.5t-164 91.5t-90 136t-29 173z M399 453q0 -234 213 -234q111 0 167.5 65t56.5 179q0 111 -54.5 177.5t-160.5 66.5t-164 -65.5t-58 -188.5zM463 1120q0 -192 149 -192q44 0 76 17t48.5 46.5t24 61.5t7.5 69q0 189 -152 189q-153 0 -153 -191z" />
<glyph unicode="9" horiz-adv-x="1218" d="M96 997q0 258 140.5 395.5t381.5 137.5q263 0 383.5 -164t120.5 -524q0 -425 -134 -646t-419 -221q-455 0 -469 445l308 22q8 -118 45 -169.5t125 -51.5q209 0 221 455q-47 -66 -127.5 -100.5t-163.5 -34.5q-80 0 -151.5 26t-131 79t-94.5 143t-35 208zM414 1018 q0 -248 192 -248q93 0 146 63.5t53 182.5q0 270 -197 270q-57 0 -96.5 -23t-60 -64t-29 -85t-8.5 -96z" />
<glyph unicode=":" horiz-adv-x="563" d="M119 0v287h325v-287h-325zM119 770v287h325v-287h-325z" />
<glyph unicode=";" horiz-adv-x="548" d="M115 0v287h329v-236l-163 -348l-125 37l55 260h-96zM117 770v287h327v-287h-327z" />
<glyph unicode="&#x3c;" horiz-adv-x="1187" d="M199 455v254l788 315v-250l-557 -186l557 -174v-248z" />
<glyph unicode="=" horiz-adv-x="1187" d="M199 358v205h788v-205h-788zM199 696v205h788v-205h-788z" />
<glyph unicode="&#x3e;" horiz-adv-x="1187" d="M199 166v250l557 186l-557 174v248l788 -289v-254z" />
<glyph unicode="?" horiz-adv-x="1034" d="M57 1071q2 103 30 184.5t83 144t146 96.5t212 34q221 0 346 -123.5t125 -341.5q0 -400 -366 -483l-15 -174h-294l-19 364q199 6 284 77.5t85 217.5q0 215 -160 215q-81 0 -117 -57t-41 -174zM301 0v287h328v-287h-328z" />
<glyph unicode="@" horiz-adv-x="1683" d="M86 389q0 231 99 407t278.5 271.5t413.5 95.5q154 0 283.5 -41t227 -120t152.5 -204.5t55 -285.5q0 -262 -90.5 -389t-257.5 -127q-96 0 -159 33t-87 88q-36 -59 -104.5 -96t-161.5 -37q-142 0 -216.5 91.5t-74.5 239.5q0 102 23 190.5t68 158t118 109.5t166 40 q137 0 201 -108l27 96h190l-51 -477q-5 -57 -6 -99.5t20.5 -67t69.5 -24.5q145 0 145 348q0 273 -141.5 400t-415.5 127q-273 0 -425 -172t-152 -453q0 -121 28 -218t78.5 -163t123 -110.5t159 -64.5t188.5 -20q271 0 422 144l94 -131q-87 -87 -224 -130.5t-298 -43.5 q-363 0 -564.5 190.5t-201.5 552.5zM662 326q0 -90 30.5 -138.5t104.5 -48.5q75 0 121.5 50.5t54.5 134.5l18 165q9 82 -25 127.5t-106 45.5q-45 0 -80.5 -20.5t-57 -53t-35.5 -77.5t-19.5 -90t-5.5 -95z" />
<glyph unicode="A" horiz-adv-x="1419" d="M2 0l496 1503h413l506 -1503h-340l-114 346h-521l-110 -346h-330zM512 600h379l-191 598h-4z" />
<glyph unicode="B" horiz-adv-x="1316" d="M164 0v1503h547q255 0 369 -94.5t114 -282.5q0 -137 -86.5 -224.5t-206.5 -113.5v-8q170 -12 257 -104t87 -248q0 -428 -561 -428h-520zM494 264h155q138 0 202 41.5t64 149.5q0 182 -221 182h-200v-373zM494 889h92q61 0 106 8t84 27.5t59.5 58.5t20.5 96q0 84 -44 124 t-153 40h-165v-354z" />
<glyph unicode="C" horiz-adv-x="1345" d="M84 729q0 202 47.5 356t134.5 251t205 145.5t264 48.5q258 0 397.5 -146.5t139.5 -402.5l-326 -25v5q0 165 -60 235q-60 72 -169 72q-283 0 -283 -531q0 -262 71 -379.5t204 -117.5q210 0 231 274l320 -22q-50 -517 -568 -517q-293 0 -450.5 190.5t-157.5 563.5z" />
<glyph unicode="D" horiz-adv-x="1404" d="M164 0v1503h368q212 0 363 -46t245 -138.5t137.5 -224.5t43.5 -312q0 -199 -43.5 -343t-138 -243.5t-246 -147.5t-365.5 -48h-364zM496 270h79q206 0 305 112t99 380q0 260 -96 366.5t-308 106.5h-79v-965z" />
<glyph unicode="E" horiz-adv-x="1171" d="M164 0v1503h887v-268h-555v-336h493v-262h-493v-367h589v-270h-921z" />
<glyph unicode="F" horiz-adv-x="1110" d="M164 0v1503h887v-268h-555v-377h483v-260h-483v-598h-332z" />
<glyph unicode="G" horiz-adv-x="1423" d="M84 719q0 210 49 367.5t138.5 253.5t208 143t265.5 47q248 0 385 -142.5t138 -406.5l-326 -25q-1 90 -18.5 153t-48.5 96.5t-67.5 48t-84.5 14.5q-289 0 -289 -535q0 -264 78.5 -380.5t222.5 -116.5q113 0 191 73t84 215h-256v240h546v-789h-208l-33 177 q-65 -84 -163 -130.5t-214 -46.5q-285 0 -441.5 191t-156.5 553z" />
<glyph unicode="H" horiz-adv-x="1503" d="M164 0v1503h332v-620h512v620h333v-1503h-333v610h-512v-610h-332z" />
<glyph unicode="I" horiz-adv-x="833" d="M100 0v213h152v1077h-152v213h633v-213h-151v-1077h151v-213h-633z" />
<glyph unicode="J" horiz-adv-x="1163" d="M35 487l313 23q3 -43 6 -69.5t10 -62.5t19 -57t30 -41.5t46 -30t65 -9.5q88 0 125 56t37 189v1018h332v-1030q0 -248 -129 -373t-371 -125q-483 0 -483 506v6z" />
<glyph unicode="K" horiz-adv-x="1431" d="M164 0v1503h332v-626l516 626h368l-520 -616l565 -887h-387l-401 621l-141 -168v-453h-332z" />
<glyph unicode="L" horiz-adv-x="1103" d="M164 0v1503h332v-1233h528v-270h-860z" />
<glyph unicode="M" horiz-adv-x="1871" d="M164 0v1503h491l289 -1169h6l281 1169h477v-1503h-311v1108h-8l-285 -1108h-322l-301 1110h-6v-1110h-311z" />
<glyph unicode="N" horiz-adv-x="1523" d="M164 0v1503h389l500 -1020v1020h307v-1503h-369l-520 1006v-1006h-307z" />
<glyph unicode="O" horiz-adv-x="1452" d="M84 745q0 372 178.5 578.5t487.5 206.5t464.5 -196.5t155.5 -563.5q0 -383 -165.5 -589t-485.5 -206q-318 0 -476.5 198.5t-158.5 571.5zM432 756q0 -268 72 -394t225 -126q151 0 222 125.5t71 402.5q0 260 -68.5 380t-214.5 120q-145 0 -226 -124.5t-81 -383.5z" />
<glyph unicode="P" horiz-adv-x="1288" d="M164 0v1503h563q502 0 502 -452q0 -50 -5 -95.5t-21 -99.5t-41.5 -98.5t-69.5 -87.5t-102 -72.5t-143 -47.5t-188 -18h-165v-532h-330zM494 782h122q139 0 208 56.5t69 185.5q0 107 -52 163t-179 56h-168v-461z" />
<glyph unicode="Q" horiz-adv-x="1452" d="M84 745q0 372 178.5 578.5t487.5 206.5t464.5 -196.5t155.5 -563.5q0 -538 -315 -717l159 -272l-245 -115l-221 311q-5 0 -14.5 -1t-14.5 -1q-318 0 -476.5 198.5t-158.5 571.5zM432 756q0 -268 72 -394t225 -126q151 0 222 125.5t71 402.5q0 260 -68.5 380t-214.5 120 q-145 0 -226 -124.5t-81 -383.5z" />
<glyph unicode="R" horiz-adv-x="1327" d="M164 0v1503h563q134 0 232 -31.5t156.5 -90t86 -135t27.5 -173.5q0 -333 -275 -432l306 -641h-355l-274 600h-137v-600h-330zM494 848h131q136 0 202 43t66 160q0 95 -55 143.5t-176 48.5h-168v-395z" />
<glyph unicode="S" horiz-adv-x="1282" d="M51 440l342 47q19 -122 76 -183.5t188 -61.5q101 0 155 44t54 126q0 40 -16.5 72t-39.5 52t-67 38.5t-77.5 28t-92.5 24.5q-174 42 -251 80q-181 88 -215 274q-9 47 -9 100q0 207 153 329t400 122q473 0 539 -424l-324 -64q-37 228 -229 228q-91 0 -138.5 -40.5 t-47.5 -117.5q0 -36 14.5 -65.5t36 -48.5t58.5 -36t70 -27t83 -22q10 -3 32 -8q47 -12 72 -18.5t71 -20.5t71.5 -26t64 -32.5t61 -41.5t48.5 -52t40 -65.5t23.5 -80t9.5 -97.5q0 -121 -43.5 -217t-119.5 -157t-177 -92.5t-219 -31.5q-266 0 -415 114t-181 351z" />
<glyph unicode="T" horiz-adv-x="1157" d="M14 1235v268h1129v-268h-398v-1235h-333v1235h-398z" />
<glyph unicode="U" horiz-adv-x="1472" d="M145 551v952h326v-864q0 -82 7 -142.5t24.5 -111t47.5 -81t76.5 -47.5t110.5 -17q80 0 131.5 23t80 75t39.5 122t11 177v866h328v-964q0 -273 -149.5 -418.5t-450.5 -145.5q-159 0 -272.5 39t-181 115.5t-98 180t-30.5 241.5z" />
<glyph unicode="V" horiz-adv-x="1386" d="M0 1503h340l360 -1200h7l350 1200h329l-481 -1503h-413z" />
<glyph unicode="W" horiz-adv-x="2031" d="M29 1503h340l213 -1198h6l278 1198h299l285 -1198h6l219 1198h328l-350 -1503h-412l-225 985h-10l-220 -985h-413z" />
<glyph unicode="X" horiz-adv-x="1357" d="M4 0l440 776l-424 727h381l271 -518h6l274 518h365l-420 -725l457 -778h-385l-303 537h-7l-284 -537h-371z" />
<glyph unicode="Y" horiz-adv-x="1294" d="M-23 1503h369l309 -631l318 631h346l-502 -938v-565h-325v557z" />
<glyph unicode="Z" horiz-adv-x="1202" d="M53 0v250l658 985h-645v268h1046v-248l-659 -985h665v-270h-1065z" />
<glyph unicode="[" horiz-adv-x="720" d="M127 -270v1874h539v-199l-217 -6v-1467l221 -4v-198h-543z" />
<glyph unicode="\" horiz-adv-x="718" d="M-29 1536l267 80l536 -1792l-266 -80z" />
<glyph unicode="]" horiz-adv-x="720" d="M51 -72l221 4v1467l-217 6v199h539v-1874h-543v198z" />
<glyph unicode="^" horiz-adv-x="1034" d="M35 811l373 735h243l346 -731l-262 -96l-211 489h-4l-229 -489z" />
<glyph unicode="_" horiz-adv-x="901" d="M0 -94h901v-236h-901v236z" />
<glyph unicode="`" d="M256 1411l178 166l262 -320l-123 -108z" />
<glyph unicode="a" horiz-adv-x="1124" d="M59 276q0 60 17.5 108t41.5 80.5t74 58t90.5 40t116 27t125.5 18.5t144 13v36q0 114 -33.5 162.5t-110.5 48.5q-88 0 -114 -44q-16 -28 -17 -76q0 -28 6 -62l-288 -29q-7 49 -7 93q0 22 2 44q5 64 35.5 116.5t81 90t131 58t185.5 20.5q128 0 216.5 -32.5t136.5 -95 t68.5 -141.5t20.5 -185v-361q0 -48 21 -64q12 -10 36 -10q17 0 41 5l8 -189q-95 -21 -165 -21q-56 -1 -96 13q-88 30 -121 137q-93 -160 -324 -160q-84 0 -148 24.5t-101 67.5t-55 95.5t-18 113.5zM379 293q0 -55 34.5 -85t86.5 -30q75 0 121.5 57.5t46.5 139.5v65 q-116 -7 -180.5 -26t-86.5 -47t-22 -74z" />
<glyph unicode="b" horiz-adv-x="1179" d="M106 0v1503h322v-577h2q41 63 118.5 108t192.5 45q59 0 111.5 -15.5t102.5 -54t86 -97t57.5 -151t21.5 -210.5q0 -284 -116 -430t-308 -146q-99 0 -172.5 36.5t-109.5 99.5h-6l-23 -111h-279zM420 528q0 -344 176 -344q192 0 192 367q0 92 -13.5 156.5t-38.5 98.5t-54 48 t-66 14q-100 0 -148 -83.5t-48 -256.5z" />
<glyph unicode="c" horiz-adv-x="1079" d="M55 518q0 264 143.5 412.5t393.5 148.5q214 0 325 -113.5t121 -299.5l-284 -23q-7 109 -53.5 157t-118.5 48q-195 0 -195 -318q0 -172 48 -247.5t145 -75.5q72 0 114 40t58 140l282 -20q-13 -107 -57 -185.5t-109.5 -122.5t-139.5 -64t-161 -20q-132 0 -232 40.5 t-160.5 114t-90 171t-29.5 217.5z" />
<glyph unicode="d" horiz-adv-x="1171" d="M59 506q0 275 116.5 424t318.5 149q173 0 256 -123h2v547h321v-1503h-282l-25 131h-4q-34 -67 -110.5 -111.5t-174.5 -44.5q-196 0 -307 127t-111 404zM393 508q0 -175 44 -251.5t134 -76.5q191 0 191 348q0 183 -45.5 262.5t-138.5 79.5q-91 0 -138 -84t-47 -278z" />
<glyph unicode="e" horiz-adv-x="1114" d="M55 516q0 263 143.5 413t393.5 150q252 0 370 -162q93 -128 94 -335q0 -55 -7 -115h-664q2 -127 49 -193.5t150 -66.5q152 0 184 158l274 -27q-69 -363 -471 -363q-131 0 -231 40t-161.5 113t-92.5 170.5t-31 217.5zM387 651h354q1 13 1 26q0 92 -40 139q-44 54 -127 54 q-89 0 -136 -59t-52 -160z" />
<glyph unicode="f" horiz-adv-x="727" d="M29 834v221h125v30q0 233 101 339t300 106q110 0 217 -29l-35 -231q-72 20 -129 20q-70 0 -101.5 -44.5t-31.5 -147.5v-43h230v-221h-230v-834h-321v834h-125z" />
<glyph unicode="g" horiz-adv-x="1171" d="M59 526q0 137 33 243.5t92 173.5t137.5 101.5t172.5 34.5q196 0 272 -133h4l29 109h274v-944q0 -253 -136.5 -381.5t-391.5 -128.5q-189 0 -304 78t-149 227l295 53q6 -29 14.5 -48.5t25.5 -40t48.5 -30.5t77.5 -10q102 0 150.5 60t48.5 194v88h-2q-33 -61 -106 -102 t-183 -41q-56 0 -105 10.5t-95 33.5t-82 62t-63.5 92.5t-42 129.5t-14.5 169zM393 537q0 -170 43 -237t129 -67q103 0 149 74.5t46 233.5q0 170 -43.5 250.5t-134.5 80.5q-189 0 -189 -335z" />
<glyph unicode="h" horiz-adv-x="1185" d="M106 0v1503h322v-581h4q107 157 311 157q166 0 256.5 -108t90.5 -332v-639h-322v625q0 106 -33.5 159.5t-113.5 53.5q-104 0 -147.5 -68t-43.5 -192v-578h-324z" />
<glyph unicode="i" horiz-adv-x="536" d="M106 0v1055h324v-1055h-324zM106 1243v260h324v-260h-324z" />
<glyph unicode="j" horiz-adv-x="526" d="M-186 -375l28 221q60 -14 123 -14q79 0 111.5 41.5t32.5 144.5v1037h321v-1012q0 -104 -20.5 -182.5t-55.5 -127.5t-88 -79t-112 -41.5t-134 -11.5q-112 0 -206 24zM109 1243v260h321v-260h-321z" />
<glyph unicode="k" horiz-adv-x="1153" d="M106 0v1503h324v-813l320 365h370l-354 -379l387 -676h-371l-233 444l-119 -122v-322h-324z" />
<glyph unicode="l" horiz-adv-x="536" d="M106 0v1503h324v-1503h-324z" />
<glyph unicode="m" horiz-adv-x="1792" d="M106 0v1055h295l11 -158h6q93 182 295 182q230 0 309 -202q57 101 133 151.5t191 50.5q174 0 262 -116.5t88 -327.5v-635h-324v625q0 106 -30.5 159.5t-106.5 53.5q-63 0 -103 -37.5t-55.5 -94.5t-15.5 -133v-573h-322v625q0 119 -32.5 166t-104.5 47q-85 0 -128.5 -63.5 t-43.5 -201.5v-573h-324z" />
<glyph unicode="n" horiz-adv-x="1185" d="M106 0v1055h295l11 -152h6q93 176 319 176q168 0 260.5 -105.5t92.5 -328.5v-645h-322v625q0 115 -36 164t-111 49q-105 0 -148 -69.5t-43 -193.5v-575h-324z" />
<glyph unicode="o" horiz-adv-x="1169" d="M55 526q0 174 74.5 301.5t196.5 189.5t274 62q239 0 376.5 -138.5t137.5 -393.5q0 -279 -144 -425.5t-397 -146.5q-252 0 -385 144t-133 407zM387 528q0 -164 46.5 -246.5t152.5 -82.5q198 0 198 336q0 313 -192 313q-101 0 -153 -83t-52 -237z" />
<glyph unicode="p" horiz-adv-x="1175" d="M106 -375v1430h289l15 -131h4q99 155 315 155q82 0 149.5 -28t122.5 -87.5t86 -163t31 -243.5q0 -155 -33.5 -270t-93.5 -181.5t-135.5 -98.5t-167.5 -32q-86 0 -157 31.5t-105 85.5h-4v-467h-316zM420 537q0 -182 44.5 -266.5t135.5 -84.5q97 0 144 91t47 278 q0 162 -43 237.5t-132 75.5q-196 0 -196 -331z" />
<glyph unicode="q" horiz-adv-x="1167" d="M53 506q0 150 35.5 263t98 179.5t141 98.5t172.5 32q171 0 260 -135h6l29 111h274v-1430h-315v498h-2q-32 -59 -106 -103.5t-179 -44.5q-89 0 -160.5 26.5t-130 85t-91 165t-32.5 254.5zM387 508q0 -167 42.5 -246.5t135.5 -79.5q193 0 193 348q0 173 -43 256.5 t-140 83.5q-188 0 -188 -362z" />
<glyph unicode="r" horiz-adv-x="1003" d="M106 0v1055h295l13 -152h4q84 176 287 176q155 0 225 -108q48 -75 49 -203q0 -57 -10 -125l-314 -16q6 48 6 84q-1 48 -11 75q-18 48 -75 48q-43 0 -72 -23.5t-44.5 -69t-22 -100t-6.5 -127.5v-514h-324z" />
<glyph unicode="s" horiz-adv-x="1017" d="M41 293l287 41q17 -76 54 -112t122 -36q69 0 106 27.5t37 73.5q0 40 -31.5 65t-81.5 38t-111 25t-121.5 32t-110.5 51.5t-81.5 91t-31.5 143.5q0 162 128 254t318 92q183 0 284.5 -69.5t141.5 -216.5l-278 -60q-25 133 -154 133q-61 0 -97 -21t-36 -65q0 -33 25 -55.5 t65.5 -33.5t93 -23t106.5 -22.5t106.5 -34t93 -55t65.5 -88.5t25 -132q0 -88 -39.5 -158.5t-105.5 -114t-147.5 -66t-170.5 -22.5q-204 0 -318 76.5t-143 241.5z" />
<glyph unicode="t" horiz-adv-x="778" d="M29 838v217h125v213l321 90v-303h230v-217h-230v-439q0 -105 30.5 -147.5t106.5 -42.5q48 0 113 18l29 -215q-91 -37 -230 -37q-182 0 -276 88.5t-94 292.5v482h-125z" />
<glyph unicode="u" horiz-adv-x="1177" d="M98 414v641h322v-629q0 -108 34 -159.5t109 -51.5q72 0 115.5 40t58.5 100t15 147v553h321v-1055h-293l-12 154h-4q-103 -179 -320 -179q-346 0 -346 439z" />
<glyph unicode="v" horiz-adv-x="1087" d="M18 1055h340l187 -768h6l188 768h330l-338 -1055h-373z" />
<glyph unicode="w" horiz-adv-x="1724" d="M23 1055h325l166 -762h4l176 762h363l178 -762h6l156 762h305l-285 -1055h-373l-176 752h-4l-180 -752h-362z" />
<glyph unicode="x" horiz-adv-x="1148" d="M20 0l359 543l-346 512h348l188 -303h4l193 303h332l-342 -508l372 -547h-352l-215 315h-2l-203 -315h-336z" />
<glyph unicode="y" horiz-adv-x="1081" d="M20 1055h345l178 -717h10l182 717h330l-358 -1041q-55 -161 -110 -247.5t-133 -126t-198 -39.5q-56 0 -117.5 9.5t-91.5 20.5l33 209q70 -18 115 -18q65 0 107 38.5t73 135.5l6 16z" />
<glyph unicode="z" horiz-adv-x="985" d="M68 0v227l469 582h-457v246h840v-226l-469 -581h479v-248h-862z" />
<glyph unicode="{" horiz-adv-x="749" d="M51 561v176q98 13 137 65t39 138v322q0 77 20 134.5t55.5 95t92 61t121 34.5t150.5 15l24 -121q-92 -32 -118.5 -64t-26.5 -104v-369q0 -112 -53.5 -184.5t-178.5 -95.5v-5q232 -28 232 -260v-374q0 -72 26 -104.5t121 -63.5l-24 -121q-75 3 -134.5 11.5t-119 29.5 t-99 54t-64 86.5t-24.5 123.5v336q0 36 -8.5 66.5t-27 58t-54.5 43t-86 16.5z" />
<glyph unicode="|" horiz-adv-x="536" d="M117 -492v2048h303v-2048h-303z" />
<glyph unicode="}" horiz-adv-x="749" d="M57 -143q95 31 121.5 63.5t26.5 104.5v374q0 233 231 260v5q-231 43 -231 280v369q0 72 -27 104t-119 64l25 121q109 -5 184.5 -22t135.5 -54t89 -102.5t29 -161.5v-322q0 -86 39 -138t137 -65v-176q-50 -1 -86 -16.5t-54.5 -43t-27 -58t-8.5 -66.5v-336 q0 -70 -24.5 -123.5t-64 -86.5t-98.5 -54t-118.5 -29.5t-134.5 -11.5z" />
<glyph unicode="~" d="M96 485q21 128 88.5 195.5t161.5 67.5q69 0 191 -46q106 -40 141 -40q71 0 96 94l154 -51q-25 -112 -85.5 -184t-148.5 -72q-74 0 -196 45q-104 38 -144 38q-79 0 -104 -100z" />
<glyph unicode="&#xa1;" horiz-adv-x="677" d="M166 -426l27 1075h296l23 -1075h-346zM176 791v286h326v-286h-326z" />
<glyph unicode="&#xa2;" horiz-adv-x="1095" d="M72 709q0 214 94 353t266 185v180h303v-172q151 -33 231.5 -139.5t86.5 -259.5l-285 -25q-7 110 -53 158.5t-117 48.5q-197 0 -197 -317q0 -173 48.5 -249.5t146.5 -76.5q72 0 114 40t58 140l281 -18q-21 -161 -104.5 -252t-209.5 -123v-182h-303v182q-183 40 -271.5 179 t-88.5 348z" />
<glyph unicode="&#xa3;" horiz-adv-x="1161" d="M72 641v229h145q-59 113 -59 232q0 89 29.5 165t88 135.5t155.5 93.5t222 34q101 0 184 -24.5t147.5 -74t100 -132.5t35.5 -193q0 -48 -6 -100l-307 16q6 46 6 84q0 104 -42 143t-118 39q-77 0 -124.5 -48t-47.5 -130q0 -66 22.5 -119t67.5 -121h353v-229h-256 q2 -12 2 -35q0 -155 -211 -336h631v-270h-940v270q105 74 155.5 152.5t50.5 148.5q0 35 -12 70h-272z" />
<glyph unicode="&#xa5;" horiz-adv-x="1228" d="M0 1503h367l254 -551l268 551h340l-352 -624h143v-215h-236v-148h236v-215h-236v-301h-325v301h-262v215h262v148h-262v215h161z" />
<glyph unicode="&#xa6;" horiz-adv-x="536" d="M117 420h303v-912h-303v912zM117 645v911h303v-911h-303z" />
<glyph unicode="&#xa7;" horiz-adv-x="1347" d="M106 512q0 96 50.5 167.5t158.5 135.5q-125 106 -125 279q0 125 72 219.5t192 142t269 47.5q208 0 345.5 -96.5t158.5 -298.5l-309 -31q-8 97 -56.5 147t-148.5 50q-85 0 -137 -36t-52 -99q0 -56 39.5 -96t103 -63t139.5 -43.5t152.5 -46.5t140 -62t103 -99.5 t39.5 -150.5q0 -188 -205 -318q121 -99 121 -276q0 -125 -71 -218.5t-190 -141.5t-267 -48q-101 0 -186.5 22t-155.5 67t-113.5 122t-54.5 180l307 35q8 -97 58 -146t153 -49q86 0 135 35.5t49 104.5q0 44 -24.5 77t-66 54t-95 37t-113 31t-118.5 32.5t-112.5 44.5t-95 63.5 t-66 94t-24.5 131.5zM430 586q0 -33 17 -59.5t41.5 -44t68 -34t79.5 -26.5t94 -25.5t95 -27.5q95 54 95 131q0 37 -22.5 64t-67 46t-90 32t-113.5 31.5t-115 35.5q-82 -45 -82 -123z" />
<glyph unicode="&#xa8;" d="M211 1237v240h238v-240h-238zM575 1237v240h238v-240h-238z" />
<glyph unicode="&#xa9;" horiz-adv-x="1656" d="M90 666q0 170 57.5 311t158.5 234.5t236.5 144.5t291.5 51q339 0 536 -192.5t197 -516.5q0 -219 -93.5 -388t-261.5 -261t-385 -92q-180 0 -322 54.5t-232 151t-136.5 224.5t-46.5 279zM281 670q0 -252 147 -395.5t406 -143.5q254 0 401 149t147 408t-151 402t-397 143 q-160 0 -284.5 -65.5t-196.5 -194.5t-72 -303zM475 678q0 185 99 300.5t266 115.5q62 0 113.5 -15t96.5 -48t73.5 -92.5t35.5 -141.5l-158 -23q-11 90 -48.5 131t-112.5 41q-85 0 -137 -66t-52 -202q0 -74 16.5 -129.5t59.5 -92t109 -36.5q79 0 120.5 43t59.5 131l149 -29 q-14 -80 -46.5 -138.5t-78 -91.5t-96.5 -48t-110 -15q-91 0 -161 30.5t-112.5 86t-64 128.5t-21.5 161z" />
<glyph unicode="&#xaa;" horiz-adv-x="811" d="M51 1034q0 24 4.5 45t16.5 38t23.5 30.5t34 25.5t40 20.5t48.5 16t52 12.5t60 11t62 9t67 9v21q0 98 -80 98q-88 0 -68 -78l-227 -20q-20 118 53 188t252 70q172 0 244 -68.5t72 -197.5v-220q0 -25 12 -34.5t47 -3.5l6 -144q-119 -30 -191.5 -13t-99.5 87 q-62 -94 -217 -94q-110 0 -160.5 54t-50.5 138zM299 1051q0 -34 18 -50t48 -16q43 0 68.5 28t25.5 77v47q-90 -6 -125 -27.5t-35 -58.5z" />
<glyph unicode="&#xab;" horiz-adv-x="940" d="M59 514l271 416l178 -74l-191 -336l193 -358l-178 -78zM434 514l273 416l176 -74l-189 -336l191 -358l-176 -78z" />
<glyph unicode="&#xac;" horiz-adv-x="1187" d="M199 604v205h788v-465h-219v260h-569z" />
<glyph unicode="&#xad;" horiz-adv-x="657" d="M51 416v254h555v-254h-555z" />
<glyph unicode="&#xae;" horiz-adv-x="909" d="M51 1098q0 184 116 294.5t288 110.5q187 0 295 -106t108 -285q0 -180 -111.5 -290.5t-293.5 -110.5q-193 0 -297.5 108t-104.5 279zM166 1100q0 -135 76.5 -212t212.5 -77t214.5 79t78.5 216q0 141 -80.5 218t-212.5 77q-127 0 -208 -80.5t-81 -220.5zM317 915v392h166 q131 0 131 -111q0 -40 -19 -70.5t-52 -40.5l90 -170h-94l-80 154h-53v-154h-89zM406 1135h26q45 0 66.5 10t21.5 45q0 31 -17 40t-57 9h-40v-104z" />
<glyph unicode="&#xaf;" d="M223 1243v199h578v-199h-578z" />
<glyph unicode="&#xb0;" horiz-adv-x="638" d="M82 1307q0 104 71.5 166.5t172.5 62.5q103 0 167 -60t64 -161q0 -111 -66.5 -173.5t-175.5 -62.5q-107 0 -170 61t-63 167zM223 1307q0 -113 96 -113q42 0 68.5 28t26.5 87q0 58 -26.5 84t-65.5 26q-41 0 -70 -25.5t-29 -86.5z" />
<glyph unicode="&#xb1;" horiz-adv-x="1187" d="M199 0v205h788v-205h-788zM199 604v205h290v291h205v-291h293v-205h-293v-293h-205v293h-290z" />
<glyph unicode="&#xb2;" horiz-adv-x="841" d="M102 799q-9 93 11 194q12 58 58 116.5t102 106t111 93.5t91.5 95t36.5 95q0 37 -24 58.5t-66 21.5q-112 0 -80 -162l-229 -14q-34 149 46.5 246.5t268.5 97.5q155 0 241.5 -65.5t86.5 -184.5q0 -55 -19.5 -104.5t-51 -87t-70 -71.5t-78.5 -64.5t-74 -58.5t-58 -60 t-30 -64h354v-188h-627z" />
<glyph unicode="&#xb3;" horiz-adv-x="823" d="M68 1073l237 12q6 -72 30.5 -103.5t78.5 -31.5q45 0 69.5 30t24.5 79q0 72 -53.5 100t-163.5 23l-23 170q116 5 165.5 35t49.5 100q0 92 -88 92q-55 0 -75.5 -34t-4.5 -128l-229 -14q-34 153 45 248.5t268 95.5q155 0 242.5 -60t87.5 -171q0 -171 -190 -228 q103 -23 157 -81t54 -146q0 -135 -91 -206t-251 -71q-176 0 -254 69.5t-86 219.5z" />
<glyph unicode="&#xb4;" d="M338 1257l262 324l174 -168l-315 -264z" />
<glyph unicode="&#xb5;" horiz-adv-x="1288" d="M162 -360v1415h315v-617q0 -45 1.5 -71t8.5 -59t20 -50.5t38.5 -30t62.5 -12.5q205 0 205 342v498h315v-1055h-268l-41 195q-57 -88 -144 -141.5t-181 -53.5q-23 0 -43 4l-7 -6l48 -358h-330z" />
<glyph unicode="&#xb6;" horiz-adv-x="1374" d="M88 977q0 90 17 165.5t57.5 143.5t103 115t159 74.5t220.5 27.5h211v-1792h-242v735h-12q-135 0 -236.5 42t-161 116.5t-88 167.5t-28.5 205zM977 -287v1790h242v-1790h-242z" />
<glyph unicode="&#xb7;" horiz-adv-x="563" d="M119 535v286h327v-286h-327z" />
<glyph unicode="&#xb8;" d="M307 -379l86 107q67 -54 125 -54q70 0 70 70q0 63 -62 63q-28 0 -57 -18l-74 33l78 178h131l-47 -92q30 12 59 12q81 0 129 -51.5t48 -132.5q0 -88 -64 -147.5t-176 -59.5q-71 0 -128.5 20t-117.5 72z" />
<glyph unicode="&#xb9;" horiz-adv-x="612" d="M35 1583q51 15 142 62t142 86h156v-932h-242v671q-53 -31 -147 -65z" />
<glyph unicode="&#xba;" horiz-adv-x="856" d="M66 1184q0 167 104.5 256.5t267.5 89.5q168 0 260.5 -85t92.5 -249q0 -177 -97 -265.5t-276 -88.5q-173 0 -262.5 88.5t-89.5 253.5zM324 1184q0 -94 24 -134t82 -40q53 0 77.5 42.5t24.5 135.5q0 89 -23.5 129.5t-74.5 40.5q-110 0 -110 -174z" />
<glyph unicode="&#xbb;" horiz-adv-x="940" d="M55 162l191 358l-189 336l176 74l273 -416l-275 -430zM430 162l193 358l-191 336l178 74l271 -416l-273 -430z" />
<glyph unicode="&#xbc;" horiz-adv-x="1966" d="M66 1356q52 16 142.5 62.5t141.5 84.5h156v-932h-242v672q-53 -31 -147 -65zM350 86l879 1464l201 -114l-881 -1469zM1040 141v144l344 647h297v-613h101v-178h-101v-141h-239v141h-402zM1247 319h195v375h-6z" />
<glyph unicode="&#xbd;" horiz-adv-x="1966" d="M88 1356q52 16 143 62.5t142 84.5h155v-932h-241v672q-52 -30 -148 -65zM354 86l879 1464l201 -114l-881 -1469zM1153 0h627v188h-355q6 32 30 64t58 60t74 58.5t78.5 64.5t70 71.5t51 87t19.5 104.5q0 119 -86 184.5t-241 65.5q-127 0 -207 -47.5t-105.5 -124 t-3.5 -172.5l230 14q-32 162 80 162q42 0 66 -21.5t24 -58.5q0 -46 -37 -95t-91.5 -95t-111 -93t-102.5 -105.5t-58 -116.5q-19 -98 -10 -195z" />
<glyph unicode="&#xbe;" horiz-adv-x="1966" d="M78 844q8 -150 86 -219.5t254 -69.5q160 0 251 70.5t91 205.5q0 88 -54 146.5t-157 81.5q190 57 190 227q0 112 -87 172t-242 60q-189 0 -268.5 -95.5t-45.5 -248.5l230 14q-16 94 4.5 128t75.5 34q88 0 88 -93q0 -70 -49.5 -100t-165.5 -35l22 -170q110 5 163.5 -23 t53.5 -100q0 -49 -24.5 -78.5t-69.5 -29.5q-54 0 -78.5 31.5t-30.5 103.5zM473 86l879 1464l200 -114l-880 -1469zM1135 141v144l344 647h297v-613h100v-178h-100v-141h-240v141h-401zM1341 319h195v375h-6z" />
<glyph unicode="&#xbf;" horiz-adv-x="1034" d="M35 12q0 -218 125 -341.5t346 -123.5q121 0 212 34t146 96.5t83 144t30 184.5l-299 21q-5 -117 -41 -174.5t-117 -57.5q-160 0 -160 215q0 146 85 217.5t284 77.5l-18 365h-295l-15 -174q-366 -83 -366 -484zM406 791v286h327v-286h-327z" />
<glyph unicode="&#xc0;" horiz-adv-x="1419" d="M2 0l496 1503h413l506 -1503h-340l-114 346h-521l-110 -346h-330zM446 1720l119 207l340 -229l-90 -142zM512 600h379l-191 598h-4z" />
<glyph unicode="&#xc1;" horiz-adv-x="1419" d="M2 0l496 1503h413l506 -1503h-340l-114 346h-521l-110 -346h-330zM494 1698l342 229l112 -207l-368 -164zM512 600h379l-191 598h-4z" />
<glyph unicode="&#xc2;" horiz-adv-x="1419" d="M2 0l496 1503h413l506 -1503h-340l-114 346h-521l-110 -346h-330zM373 1657l241 235h168l242 -235l-86 -107l-242 146l-237 -146zM512 600h379l-191 598h-4z" />
<glyph unicode="&#xc3;" horiz-adv-x="1419" d="M2 0l496 1503h413l506 -1503h-340l-114 346h-521l-110 -346h-330zM371 1612q49 243 198 243q61 0 147 -28.5t118 -28.5q26 0 44.5 17t28.5 63l121 -20q-23 -124 -74.5 -187t-122.5 -63q-64 0 -151.5 29.5t-116.5 29.5q-52 0 -69 -76zM512 600h379l-191 598h-4z" />
<glyph unicode="&#xc4;" horiz-adv-x="1419" d="M2 0l496 1503h413l506 -1503h-340l-114 346h-521l-110 -346h-330zM395 1593v242h238v-242h-238zM512 600h379l-191 598h-4zM760 1593v242h237v-242h-237z" />
<glyph unicode="&#xc5;" horiz-adv-x="1419" d="M2 0l496 1503h413l506 -1503h-340l-114 346h-521l-110 -346h-330zM469 1757q0 89 62 145t165 56q116 0 174 -53t58 -142q0 -94 -60 -150.5t-180 -56.5q-219 0 -219 201zM512 600h379l-191 598h-4zM631 1757q0 -49 15 -67.5t46 -18.5q58 0 58 88q0 86 -56 86 q-63 0 -63 -88z" />
<glyph unicode="&#xc6;" horiz-adv-x="1933" d="M2 0l520 1503h1290v-268h-557v-356h494v-263h-494v-346h592v-270h-923v616h-392l-200 -616h-330zM602 879h322v356h-205z" />
<glyph unicode="&#xc7;" horiz-adv-x="1345" d="M84 729q0 202 47.5 356t134.5 251t205 145.5t264 48.5q258 0 397.5 -146.5t139.5 -402.5l-326 -25q1 169 -59.5 240.5t-169.5 71.5q-283 0 -283 -531q0 -262 71 -379.5t204 -117.5q210 0 231 274l320 -22q-50 -496 -525 -515l-35 -69q30 12 60 12q80 0 128 -51.5 t48 -132.5q0 -88 -64 -147.5t-176 -59.5q-71 0 -128 19.5t-117 72.5l86 107q67 -54 125 -54q69 0 69 70q0 63 -61 63q-29 0 -58 -18l-73 33l67 158q-253 27 -387.5 215t-134.5 534z" />
<glyph unicode="&#xc8;" horiz-adv-x="1171" d="M164 0v1503h887v-268h-555v-336h493v-262h-493v-367h589v-270h-921zM354 1720l119 207l340 -229l-90 -142z" />
<glyph unicode="&#xc9;" horiz-adv-x="1171" d="M164 0v1503h887v-268h-555v-336h493v-262h-493v-367h589v-270h-921zM403 1698l342 229l113 -207l-369 -164z" />
<glyph unicode="&#xca;" horiz-adv-x="1171" d="M164 0v1503h887v-268h-555v-336h493v-262h-493v-367h589v-270h-921zM268 1657l242 235h168l242 -235l-86 -107l-242 146l-238 -146z" />
<glyph unicode="&#xcb;" horiz-adv-x="1171" d="M164 0v1503h887v-268h-555v-336h493v-262h-493v-367h589v-270h-921zM309 1593v242h238v-242h-238zM674 1593v242h237v-242h-237z" />
<glyph unicode="&#xcc;" horiz-adv-x="833" d="M100 0v213h152v1077h-152v213h633v-213h-151v-1077h151v-213h-633zM162 1720l119 207l340 -229l-91 -142z" />
<glyph unicode="&#xcd;" horiz-adv-x="833" d="M100 0v213h152v1077h-152v213h633v-213h-151v-1077h151v-213h-633zM209 1698l342 229l113 -207l-369 -164z" />
<glyph unicode="&#xce;" horiz-adv-x="833" d="M88 1657l242 235h168l241 -235l-86 -107l-241 146l-238 -146zM100 0v213h152v1077h-152v213h633v-213h-151v-1077h151v-213h-633z" />
<glyph unicode="&#xcf;" horiz-adv-x="833" d="M100 0v213h152v1077h-152v213h633v-213h-151v-1077h151v-213h-633zM117 1593v242h237v-242h-237zM481 1593v242h238v-242h-238z" />
<glyph unicode="&#xd0;" horiz-adv-x="1423" d="M43 627v252h141v624h369q212 0 363 -46t244.5 -138.5t137 -224.5t43.5 -312q0 -199 -43.5 -343t-137.5 -243.5t-245.5 -147.5t-365.5 -48h-365v627h-141zM516 270h80q206 0 304.5 112t98.5 380q0 260 -95.5 366.5t-307.5 106.5h-80v-356h311v-252h-311v-357z" />
<glyph unicode="&#xd1;" horiz-adv-x="1523" d="M164 0v1503h389l500 -1020v1020h307v-1503h-369l-520 1006v-1006h-307zM428 1612q49 243 199 243q61 0 146.5 -28.5t117.5 -28.5q57 0 74 80l120 -20q-23 -124 -74 -187t-122 -63q-64 0 -151.5 29.5t-116.5 29.5q-53 0 -70 -76z" />
<glyph unicode="&#xd2;" horiz-adv-x="1452" d="M84 745q0 372 178.5 578.5t487.5 206.5t464.5 -196.5t155.5 -563.5q0 -383 -165.5 -589t-485.5 -206q-318 0 -476.5 198.5t-158.5 571.5zM432 756q0 -268 72 -394t225 -126q151 0 222 125.5t71 402.5q0 260 -68.5 380t-214.5 120q-145 0 -226 -124.5t-81 -383.5z M487 1720l119 207l340 -229l-90 -142z" />
<glyph unicode="&#xd3;" horiz-adv-x="1452" d="M84 745q0 372 178.5 578.5t487.5 206.5t464.5 -196.5t155.5 -563.5q0 -383 -165.5 -589t-485.5 -206q-318 0 -476.5 198.5t-158.5 571.5zM432 756q0 -268 72 -394t225 -126q151 0 222 125.5t71 402.5q0 260 -68.5 380t-214.5 120q-145 0 -226 -124.5t-81 -383.5z M537 1698l342 229l112 -207l-368 -164z" />
<glyph unicode="&#xd4;" horiz-adv-x="1452" d="M84 745q0 372 178.5 578.5t487.5 206.5t464.5 -196.5t155.5 -563.5q0 -383 -165.5 -589t-485.5 -206q-318 0 -476.5 198.5t-158.5 571.5zM420 1657l242 235h167l242 -235l-86 -107l-242 146l-237 -146zM432 756q0 -268 72 -394t225 -126q151 0 222 125.5t71 402.5 q0 260 -68.5 380t-214.5 120q-145 0 -226 -124.5t-81 -383.5z" />
<glyph unicode="&#xd5;" horiz-adv-x="1452" d="M84 745q0 372 178.5 578.5t487.5 206.5t464.5 -196.5t155.5 -563.5q0 -383 -165.5 -589t-485.5 -206q-318 0 -476.5 198.5t-158.5 571.5zM414 1612q49 243 198 243q61 0 147 -28.5t118 -28.5q26 0 44.5 17t28.5 63l121 -20q-23 -124 -74.5 -187t-122.5 -63 q-64 0 -151.5 29.5t-116.5 29.5q-52 0 -69 -76zM432 756q0 -268 72 -394t225 -126q151 0 222 125.5t71 402.5q0 260 -68.5 380t-214.5 120q-145 0 -226 -124.5t-81 -383.5z" />
<glyph unicode="&#xd6;" horiz-adv-x="1452" d="M84 745q0 372 178.5 578.5t487.5 206.5t464.5 -196.5t155.5 -563.5q0 -383 -165.5 -589t-485.5 -206q-318 0 -476.5 198.5t-158.5 571.5zM432 756q0 -268 72 -394t225 -126q151 0 222 125.5t71 402.5q0 260 -68.5 380t-214.5 120q-145 0 -226 -124.5t-81 -383.5z M442 1593v242h238v-242h-238zM807 1593v242h237v-242h-237z" />
<glyph unicode="&#xd7;" d="M160 500l207 207l-207 206l143 144l207 -207l207 207l145 -144l-209 -206l209 -207l-145 -144l-207 207l-207 -207z" />
<glyph unicode="&#xd8;" horiz-adv-x="1447" d="M84 745q0 371 178 578t486 207q90 0 174 -19l63 142l260 -105l-78 -170q197 -194 197 -608q0 -383 -164.5 -589t-482.5 -206q-88 0 -172 19l-68 -152l-258 111l74 166q-209 191 -209 626zM432 756q0 -162 27 -273l346 772q-45 9 -70 9q-143 0 -223 -124.5t-80 -383.5z M657 244q27 -8 70 -8q148 0 219.5 126t71.5 402q0 136 -21 235z" />
<glyph unicode="&#xd9;" horiz-adv-x="1472" d="M145 551v952h326v-864q0 -82 7 -142.5t24.5 -111t47.5 -81t76.5 -47.5t110.5 -17q80 0 131.5 23t80 75t39.5 122t11 177v866h328v-964q0 -273 -149.5 -418.5t-450.5 -145.5q-159 0 -272.5 39t-181 115.5t-98 180t-30.5 241.5zM477 1720l119 207l340 -229l-90 -142z" />
<glyph unicode="&#xda;" horiz-adv-x="1472" d="M145 551v952h326v-864q0 -82 7 -142.5t24.5 -111t47.5 -81t76.5 -47.5t110.5 -17q80 0 131.5 23t80 75t39.5 122t11 177v866h328v-964q0 -273 -149.5 -418.5t-450.5 -145.5q-159 0 -272.5 39t-181 115.5t-98 180t-30.5 241.5zM526 1698l342 229l113 -207l-369 -164z" />
<glyph unicode="&#xdb;" horiz-adv-x="1472" d="M145 551v952h326v-864q0 -82 7 -142.5t24.5 -111t47.5 -81t76.5 -47.5t110.5 -17q80 0 131.5 23t80 75t39.5 122t11 177v866h328v-964q0 -273 -149.5 -418.5t-450.5 -145.5q-159 0 -272.5 39t-181 115.5t-98 180t-30.5 241.5zM410 1657l241 235h168l242 -235l-86 -107 l-242 146l-237 -146z" />
<glyph unicode="&#xdc;" horiz-adv-x="1472" d="M145 551v952h326v-864q0 -82 7 -142.5t24.5 -111t47.5 -81t76.5 -47.5t110.5 -17q80 0 131.5 23t80 75t39.5 122t11 177v866h328v-964q0 -273 -149.5 -418.5t-450.5 -145.5q-159 0 -272.5 39t-181 115.5t-98 180t-30.5 241.5zM432 1593v242h238v-242h-238zM797 1593v242 h237v-242h-237z" />
<glyph unicode="&#xdd;" horiz-adv-x="1294" d="M-23 1503h369l309 -631l318 631h346l-502 -938v-565h-325v557zM449 1698l342 229l112 -207l-368 -164z" />
<glyph unicode="&#xde;" horiz-adv-x="1288" d="M164 0v1503h330v-246h233q502 0 502 -452q0 -51 -5 -96.5t-21 -99t-41.5 -98t-69.5 -87.5t-102 -72t-143 -47t-188 -18h-165v-287h-330zM494 535h122q138 0 207.5 57t69.5 186q0 107 -52 163t-179 56h-168v-462z" />
<glyph unicode="&#xdf;" horiz-adv-x="1437" d="M117 0v993q0 140 42 244t120.5 167.5t184 94.5t238.5 31q246 0 371 -102.5t125 -272.5q0 -129 -57 -278q-44 10 -92 10q-117 -6 -117 -92q0 -42 34 -67.5t97 -45.5q125 -39 177 -70q144 -84 144 -262q0 -183 -118.5 -279t-302.5 -96q-194 0 -308 75.5t-141 246.5l287 43 q18 -154 155 -154q55 0 89 29t34 86q0 25 -11.5 46.5t-25.5 34.5t-45.5 27.5t-50 21t-59.5 20.5q-33 11 -54.5 19.5t-52 23.5t-50.5 29.5t-42 37.5t-35 49.5t-21.5 62t-8.5 77.5q0 65 23.5 117.5t63.5 86t84 54t93 30.5q14 40 14 90q0 76 -52.5 120t-146.5 44 q-148 0 -206 -79.5t-58 -233.5v-979h-321z" />
<glyph unicode="&#xe0;" horiz-adv-x="1124" d="M59 276q0 60 17.5 108t41.5 80.5t74 58t90.5 40t116 27t125.5 18t144 13.5v36q0 114 -33.5 162.5t-110.5 48.5q-89 0 -114.5 -44.5t-10.5 -137.5l-288 -29q-10 73 -5 137t35.5 116.5t81 90t131 58t185.5 20.5q128 0 216.5 -32.5t136.5 -95t68.5 -141.5t20.5 -185v-361 q0 -48 21 -64.5t77 -4.5l8 -189q-172 -38 -260.5 -7.5t-121.5 136.5q-93 -160 -324 -160q-84 0 -148 24.5t-101 67.5t-55 95.5t-18 113.5zM281 1411l178 166l262 -320l-123 -108zM379 293q0 -55 34.5 -85t86.5 -30q75 0 121.5 57.5t46.5 139.5v65q-116 -7 -180.5 -26 t-86.5 -47t-22 -74z" />
<glyph unicode="&#xe1;" horiz-adv-x="1124" d="M59 276q0 60 17.5 108t41.5 80.5t74 58t90.5 40t116 27t125.5 18t144 13.5v36q0 114 -33.5 162.5t-110.5 48.5q-89 0 -114.5 -44.5t-10.5 -137.5l-288 -29q-10 73 -5 137t35.5 116.5t81 90t131 58t185.5 20.5q128 0 216.5 -32.5t136.5 -95t68.5 -141.5t20.5 -185v-361 q0 -48 21 -64.5t77 -4.5l8 -189q-172 -38 -260.5 -7.5t-121.5 136.5q-93 -160 -324 -160q-84 0 -148 24.5t-101 67.5t-55 95.5t-18 113.5zM362 1257l263 324l174 -168l-316 -264zM379 293q0 -55 34.5 -85t86.5 -30q75 0 121.5 57.5t46.5 139.5v65q-116 -7 -180.5 -26 t-86.5 -47t-22 -74z" />
<glyph unicode="&#xe2;" horiz-adv-x="1124" d="M59 276q0 60 17.5 108t41.5 80.5t74 58t90.5 40t116 27t125.5 18t144 13.5v36q0 114 -33.5 162.5t-110.5 48.5q-89 0 -114.5 -44.5t-10.5 -137.5l-288 -29q-10 73 -5 137t35.5 116.5t81 90t131 58t185.5 20.5q128 0 216.5 -32.5t136.5 -95t68.5 -141.5t20.5 -185v-361 q0 -48 21 -64.5t77 -4.5l8 -189q-172 -38 -260.5 -7.5t-121.5 136.5q-93 -160 -324 -160q-84 0 -148 24.5t-101 67.5t-55 95.5t-18 113.5zM209 1247l246 291h168l243 -291l-110 -98l-224 180l-213 -180zM379 293q0 -55 34.5 -85t86.5 -30q75 0 121.5 57.5t46.5 139.5v65 q-116 -7 -180.5 -26t-86.5 -47t-22 -74z" />
<glyph unicode="&#xe3;" horiz-adv-x="1124" d="M59 276q0 60 17.5 108t41.5 80.5t74 58t90.5 40t116 27t125.5 18t144 13.5v36q0 114 -33.5 162.5t-110.5 48.5q-89 0 -114.5 -44.5t-10.5 -137.5l-288 -29q-10 73 -5 137t35.5 116.5t81 90t131 58t185.5 20.5q128 0 216.5 -32.5t136.5 -95t68.5 -141.5t20.5 -185v-361 q0 -48 21 -64.5t77 -4.5l8 -189q-172 -38 -260.5 -7.5t-121.5 136.5q-93 -160 -324 -160q-84 0 -148 24.5t-101 67.5t-55 95.5t-18 113.5zM207 1253q49 244 199 244q61 0 146.5 -28.5t117.5 -28.5q26 0 44 17t29 63l121 -21q-23 -124 -74 -187t-122 -63q-64 0 -152 30 t-117 30q-52 0 -69 -76zM379 293q0 -55 34.5 -85t86.5 -30q75 0 121.5 57.5t46.5 139.5v65q-116 -7 -180.5 -26t-86.5 -47t-22 -74z" />
<glyph unicode="&#xe4;" horiz-adv-x="1124" d="M59 276q0 60 17.5 108t41.5 80.5t74 58t90.5 40t116 27t125.5 18t144 13.5v36q0 114 -33.5 162.5t-110.5 48.5q-89 0 -114.5 -44.5t-10.5 -137.5l-288 -29q-10 73 -5 137t35.5 116.5t81 90t131 58t185.5 20.5q128 0 216.5 -32.5t136.5 -95t68.5 -141.5t20.5 -185v-361 q0 -48 21 -64.5t77 -4.5l8 -189q-172 -38 -260.5 -7.5t-121.5 136.5q-93 -160 -324 -160q-84 0 -148 24.5t-101 67.5t-55 95.5t-18 113.5zM236 1237v240h237v-240h-237zM379 293q0 -55 34.5 -85t86.5 -30q75 0 121.5 57.5t46.5 139.5v65q-116 -7 -180.5 -26t-86.5 -47 t-22 -74zM600 1237v240h238v-240h-238z" />
<glyph unicode="&#xe5;" horiz-adv-x="1124" d="M59 276q0 60 17.5 108t41.5 80.5t74 58t90.5 40t116 27t125.5 18t144 13.5v36q0 114 -33.5 162.5t-110.5 48.5q-89 0 -114.5 -44.5t-10.5 -137.5l-288 -29q-10 73 -5 137t35.5 116.5t81 90t131 58t185.5 20.5q128 0 216.5 -32.5t136.5 -95t68.5 -141.5t20.5 -185v-361 q0 -48 21 -64.5t77 -4.5l8 -189q-172 -38 -260.5 -7.5t-121.5 136.5q-93 -160 -324 -160q-84 0 -148 24.5t-101 67.5t-55 95.5t-18 113.5zM313 1368q0 88 62.5 144.5t165.5 56.5q115 0 173 -53.5t58 -141.5q0 -95 -60 -151t-180 -56t-169.5 53t-49.5 148zM379 293 q0 -55 34.5 -85t86.5 -30q75 0 121.5 57.5t46.5 139.5v65q-116 -7 -180.5 -26t-86.5 -47t-22 -74zM475 1368q0 -50 15.5 -69t46.5 -19q28 0 42.5 20t14.5 70q0 84 -55 84q-64 0 -64 -86z" />
<glyph unicode="&#xe6;" horiz-adv-x="1710" d="M59 276q0 60 17.5 108t41.5 80.5t74 58t90.5 40t116 27t125.5 18t144 13.5v36q0 114 -33.5 162.5t-110.5 48.5q-89 0 -114.5 -44.5t-10.5 -137.5l-288 -29q-10 73 -5 137t35.5 116.5t81 90t131 58t185.5 20.5q110 0 183 -35.5t128 -107.5q128 143 338 143q253 0 371 -162 t88 -450h-666q3 -260 203 -260q150 0 182 162l272 -27q-67 -367 -469 -367q-150 0 -244.5 51.5t-146.5 155.5q-107 -207 -397 -207q-84 0 -148 24.5t-101 67.5t-55 95.5t-18 113.5zM381 293q0 -59 33.5 -86t85.5 -27q80 0 124 57.5t44 137.5v65q-117 -8 -181 -27t-85 -46.5 t-21 -73.5zM983 651h354q7 111 -37 165t-126 54q-90 0 -137.5 -58.5t-53.5 -160.5z" />
<glyph unicode="&#xe7;" horiz-adv-x="1079" d="M55 518q0 264 143.5 412.5t393.5 148.5q214 0 325 -113.5t121 -299.5l-284 -23q-7 109 -53.5 157t-118.5 48q-195 0 -195 -318q0 -172 48 -247.5t145 -75.5q72 0 114 40t58 140l282 -20q-13 -99 -51.5 -174t-96 -119.5t-124.5 -67.5t-146 -29l-34 -69q30 12 59 12 q80 0 128 -51.5t48 -132.5q0 -89 -64 -148t-175 -59q-71 0 -128.5 20t-117.5 72l86 107q67 -54 125 -54q69 0 69 70q0 63 -61 63q-28 0 -57 -18l-74 33l67 158q-112 11 -196 55.5t-135 116.5t-76 163.5t-25 202.5z" />
<glyph unicode="&#xe8;" horiz-adv-x="1114" d="M55 516q0 263 143.5 413t393.5 150q253 0 370.5 -162t86.5 -450h-664q2 -127 49 -193.5t150 -66.5q152 0 184 158l274 -27q-69 -363 -471 -363q-131 0 -231 40t-161.5 113t-92.5 170.5t-31 217.5zM324 1411l178 166l262 -320l-123 -108zM387 651h354q6 111 -38.5 165 t-127.5 54q-89 0 -136 -59t-52 -160z" />
<glyph unicode="&#xe9;" horiz-adv-x="1114" d="M55 516q0 263 143.5 413t393.5 150q253 0 370.5 -162t86.5 -450h-664q2 -127 49 -193.5t150 -66.5q152 0 184 158l274 -27q-69 -363 -471 -363q-131 0 -231 40t-161.5 113t-92.5 170.5t-31 217.5zM387 651h354q6 111 -38.5 165t-127.5 54q-89 0 -136 -59t-52 -160z M406 1257l262 324l174 -168l-316 -264z" />
<glyph unicode="&#xea;" horiz-adv-x="1114" d="M55 516q0 263 143.5 413t393.5 150q253 0 370.5 -162t86.5 -450h-664q2 -127 49 -193.5t150 -66.5q152 0 184 158l274 -27q-69 -363 -471 -363q-131 0 -231 40t-161.5 113t-92.5 170.5t-31 217.5zM252 1247l246 291h168l243 -291l-110 -98l-224 180l-213 -180zM387 651 h354q6 111 -38.5 165t-127.5 54q-89 0 -136 -59t-52 -160z" />
<glyph unicode="&#xeb;" horiz-adv-x="1114" d="M55 516q0 263 143.5 413t393.5 150q253 0 370.5 -162t86.5 -450h-664q2 -127 49 -193.5t150 -66.5q152 0 184 158l274 -27q-69 -363 -471 -363q-131 0 -231 40t-161.5 113t-92.5 170.5t-31 217.5zM279 1237v240h237v-240h-237zM387 651h354q6 111 -38.5 165t-127.5 54 q-89 0 -136 -59t-52 -160zM643 1237v240h238v-240h-238z" />
<glyph unicode="&#xec;" horiz-adv-x="536" d="M10 1411l178 166l263 -320l-123 -108zM106 0v1055h324v-1055h-324z" />
<glyph unicode="&#xed;" horiz-adv-x="536" d="M92 1257l262 324l174 -168l-315 -264zM106 0v1055h324v-1055h-324z" />
<glyph unicode="&#xee;" horiz-adv-x="536" d="M-61 1247l245 291h168l244 -291l-111 -98l-223 180l-213 -180zM106 0v1055h324v-1055h-324z" />
<glyph unicode="&#xef;" horiz-adv-x="536" d="M-35 1237v240h238v-240h-238zM106 0v1055h324v-1055h-324zM330 1237v240h237v-240h-237z" />
<glyph unicode="&#xf0;" horiz-adv-x="1169" d="M55 526q0 237 130 393t335 156q72 0 121.5 -19.5t103.5 -66.5l5 8q-45 103 -152 222l-233 -89l-54 150l158 59q-40 35 -123 95l266 69q64 -39 99 -67l221 84l53 -148l-147 -55q133 -148 204.5 -336.5t71.5 -400.5q0 -301 -143 -453t-398 -152q-252 0 -385 144t-133 407z M387 528q0 -164 46.5 -246.5t152.5 -82.5q198 0 198 336q0 313 -192 313q-101 0 -153 -83t-52 -237z" />
<glyph unicode="&#xf1;" horiz-adv-x="1185" d="M106 0v1055h295l11 -152h6q93 176 319 176q168 0 260.5 -105.5t92.5 -328.5v-645h-322v625q0 115 -36 164t-111 49q-105 0 -148 -69.5t-43 -193.5v-575h-324zM281 1253q49 244 198 244q61 0 146.5 -28.5t117.5 -28.5q26 0 44.5 17t29.5 63l121 -21q-23 -124 -74.5 -187 t-122.5 -63q-64 0 -151.5 30t-116.5 30q-53 0 -70 -76z" />
<glyph unicode="&#xf2;" horiz-adv-x="1169" d="M55 526q0 174 74.5 301.5t196.5 189.5t274 62q239 0 376.5 -138.5t137.5 -393.5q0 -279 -144 -425.5t-397 -146.5q-252 0 -385 144t-133 407zM332 1411l178 166l262 -320l-123 -108zM387 528q0 -164 46.5 -246.5t152.5 -82.5q198 0 198 336q0 313 -192 313 q-101 0 -153 -83t-52 -237z" />
<glyph unicode="&#xf3;" horiz-adv-x="1169" d="M55 526q0 174 74.5 301.5t196.5 189.5t274 62q239 0 376.5 -138.5t137.5 -393.5q0 -279 -144 -425.5t-397 -146.5q-252 0 -385 144t-133 407zM387 528q0 -164 46.5 -246.5t152.5 -82.5q198 0 198 336q0 313 -192 313q-101 0 -153 -83t-52 -237zM414 1257l262 324 l174 -168l-315 -264z" />
<glyph unicode="&#xf4;" horiz-adv-x="1169" d="M55 526q0 174 74.5 301.5t196.5 189.5t274 62q239 0 376.5 -138.5t137.5 -393.5q0 -279 -144 -425.5t-397 -146.5q-252 0 -385 144t-133 407zM260 1247l246 291h168l244 -291l-111 -98l-223 180l-213 -180zM387 528q0 -164 46.5 -246.5t152.5 -82.5q198 0 198 336 q0 313 -192 313q-101 0 -153 -83t-52 -237z" />
<glyph unicode="&#xf5;" horiz-adv-x="1169" d="M55 526q0 174 74.5 301.5t196.5 189.5t274 62q239 0 376.5 -138.5t137.5 -393.5q0 -279 -144 -425.5t-397 -146.5q-252 0 -385 144t-133 407zM258 1253q49 244 199 244q61 0 146.5 -28.5t117.5 -28.5q26 0 44.5 17t29.5 63l120 -21q-23 -124 -74 -187t-122 -63 q-64 0 -151.5 30t-116.5 30q-53 0 -70 -76zM387 528q0 -164 46.5 -246.5t152.5 -82.5q198 0 198 336q0 313 -192 313q-101 0 -153 -83t-52 -237z" />
<glyph unicode="&#xf6;" horiz-adv-x="1169" d="M55 526q0 174 74.5 301.5t196.5 189.5t274 62q239 0 376.5 -138.5t137.5 -393.5q0 -279 -144 -425.5t-397 -146.5q-252 0 -385 144t-133 407zM287 1237v240h237v-240h-237zM387 528q0 -164 46.5 -246.5t152.5 -82.5q198 0 198 336q0 313 -192 313q-101 0 -153 -83 t-52 -237zM651 1237v240h238v-240h-238z" />
<glyph unicode="&#xf7;" horiz-adv-x="1187" d="M199 604v205h788v-205h-788zM453 274v246h276v-246h-276zM453 885v245h276v-245h-276z" />
<glyph unicode="&#xf8;" horiz-adv-x="1169" d="M55 526q0 174 74.5 301.5t196.5 189.5t274 62q84 0 158 -18l88 147l213 -118l-86 -146q141 -141 141 -397q0 -279 -144 -425.5t-397 -146.5q-83 0 -157 19l-99 -170l-211 123l95 159q-146 143 -146 420zM387 528q0 -67 4 -96l240 412q-24 4 -39 4q-101 0 -153 -83 t-52 -237zM539 203q14 -4 47 -4q198 0 198 336q0 29 -4 79z" />
<glyph unicode="&#xf9;" horiz-adv-x="1177" d="M98 414v641h322v-629q0 -108 34 -159.5t109 -51.5q72 0 115.5 40t58.5 100t15 147v553h321v-1055h-293l-12 154h-4q-103 -179 -320 -179q-346 0 -346 439zM326 1411l178 166l262 -320l-123 -108z" />
<glyph unicode="&#xfa;" horiz-adv-x="1177" d="M98 414v641h322v-629q0 -108 34 -159.5t109 -51.5q72 0 115.5 40t58.5 100t15 147v553h321v-1055h-293l-12 154h-4q-103 -179 -320 -179q-346 0 -346 439zM408 1257l262 324l174 -168l-316 -264z" />
<glyph unicode="&#xfb;" horiz-adv-x="1177" d="M98 414v641h322v-629q0 -108 34 -159.5t109 -51.5q72 0 115.5 40t58.5 100t15 147v553h321v-1055h-293l-12 154h-4q-103 -179 -320 -179q-346 0 -346 439zM254 1247l246 291h168l243 -291l-110 -98l-223 180l-213 -180z" />
<glyph unicode="&#xfc;" horiz-adv-x="1177" d="M98 414v641h322v-629q0 -108 34 -159.5t109 -51.5q72 0 115.5 40t58.5 100t15 147v553h321v-1055h-293l-12 154h-4q-103 -179 -320 -179q-346 0 -346 439zM281 1237v240h237v-240h-237zM645 1237v240h238v-240h-238z" />
<glyph unicode="&#xfd;" horiz-adv-x="1081" d="M20 1055h345l178 -717h10l182 717h330l-358 -1041q-55 -161 -110 -247.5t-133 -126t-198 -39.5q-56 0 -117.5 9.5t-91.5 20.5l33 209q70 -18 115 -18q65 0 107 38.5t73 135.5l6 16zM373 1257l262 324l174 -168l-315 -264z" />
<glyph unicode="&#xfe;" horiz-adv-x="1175" d="M106 -375v1878h322v-581h2q42 64 120 110.5t183 46.5q63 0 118 -17t105 -56t85.5 -98.5t56 -149t20.5 -201.5q0 -125 -22.5 -224t-62 -165.5t-96.5 -110t-122.5 -63t-142.5 -19.5q-74 0 -140.5 31t-105.5 82h-4v-463h-316zM420 530q0 -178 44 -261t136 -83q191 0 191 369 q0 163 -43.5 239t-133.5 76q-194 0 -194 -340z" />
<glyph unicode="&#xff;" horiz-adv-x="1081" d="M20 1055h345l178 -717h10l182 717h330l-358 -1041q-55 -161 -110 -247.5t-133 -126t-198 -39.5q-56 0 -117.5 9.5t-91.5 20.5l33 209q70 -18 115 -18q65 0 107 38.5t73 135.5l6 16zM246 1237v240h237v-240h-237zM610 1237v240h238v-240h-238z" />
<glyph unicode="&#x152;" horiz-adv-x="1927" d="M84 737q0 373 176 583t471 210q96 0 199 -27h876v-268h-555v-336h492v-262h-492v-367h590v-270h-954q-92 -25 -191 -25q-294 0 -453 200t-159 562zM432 743q0 -260 73 -383.5t230 -123.5q107 0 183 30v961q-79 37 -177 37q-151 0 -230 -125t-79 -396z" />
<glyph unicode="&#x153;" horiz-adv-x="1826" d="M55 512q0 110 28 203t77 159.5t116.5 113t147 69t166.5 22.5q222 0 360 -151q148 151 365 151q242 0 360.5 -163.5t87.5 -448.5h-665q3 -260 200 -260q153 0 185 162l272 -27q-19 -107 -67.5 -182.5t-116 -114t-135.5 -54.5t-146 -16q-228 0 -356 152 q-140 -152 -371 -152q-240 0 -374 144.5t-134 392.5zM387 518q0 -319 195 -319q202 0 202 333q0 316 -194 316q-203 0 -203 -330zM1100 651h354q6 111 -38 165t-126 54q-90 0 -137.5 -59t-52.5 -160z" />
<glyph unicode="&#x178;" horiz-adv-x="1294" d="M-23 1503h369l309 -631l318 631h346l-502 -938v-565h-325v557zM354 1593v242h238v-242h-238zM719 1593v242h237v-242h-237z" />
<glyph unicode="&#x2c6;" d="M184 1247l246 291h168l244 -291l-111 -98l-223 180l-213 -180z" />
<glyph unicode="&#x2dc;" d="M182 1253q49 244 199 244q61 0 146.5 -28.5t117.5 -28.5q26 0 44.5 17t29.5 63l121 -21q-23 -124 -74.5 -187t-122.5 -63q-64 0 -151.5 30t-116.5 30q-53 0 -70 -76z" />
<glyph unicode="&#x2000;" horiz-adv-x="979" />
<glyph unicode="&#x2001;" horiz-adv-x="1958" />
<glyph unicode="&#x2002;" horiz-adv-x="979" />
<glyph unicode="&#x2003;" horiz-adv-x="1958" />
<glyph unicode="&#x2004;" horiz-adv-x="652" />
<glyph unicode="&#x2005;" horiz-adv-x="489" />
<glyph unicode="&#x2006;" horiz-adv-x="326" />
<glyph unicode="&#x2007;" horiz-adv-x="326" />
<glyph unicode="&#x2008;" horiz-adv-x="244" />
<glyph unicode="&#x2009;" horiz-adv-x="391" />
<glyph unicode="&#x200a;" horiz-adv-x="108" />
<glyph unicode="&#x2010;" horiz-adv-x="657" d="M51 416v254h555v-254h-555z" />
<glyph unicode="&#x2011;" horiz-adv-x="657" d="M51 416v254h555v-254h-555z" />
<glyph unicode="&#x2012;" horiz-adv-x="657" d="M51 416v254h555v-254h-555z" />
<glyph unicode="&#x2013;" horiz-adv-x="901" d="M0 508v233h901v-233h-901z" />
<glyph unicode="&#x2014;" horiz-adv-x="1802" d="M0 506v235h1802v-235h-1802z" />
<glyph unicode="&#x2018;" horiz-adv-x="444" d="M72 950v246l145 363l111 -33l-80 -273h121v-303h-297z" />
<glyph unicode="&#x2019;" horiz-adv-x="444" d="M72 1200v303h297v-246l-146 -362l-110 31l80 274h-121z" />
<glyph unicode="&#x201a;" horiz-adv-x="444" d="M76 0v303h299v-246l-148 -362l-110 31l80 274h-121z" />
<glyph unicode="&#x201c;" horiz-adv-x="849" d="M72 950v246l145 363l111 -33l-80 -273h121v-303h-297zM481 950v246l146 363l110 -33l-80 -273h121v-303h-297z" />
<glyph unicode="&#x201d;" horiz-adv-x="854" d="M72 1200v303h297v-246l-146 -362l-110 31l80 274h-121zM481 1200v303h297v-246l-145 -362l-111 31l80 274h-121z" />
<glyph unicode="&#x201e;" horiz-adv-x="854" d="M72 0v303h297v-246l-146 -362l-110 31l80 274h-121zM481 0v303h297v-246l-145 -362l-111 31l80 274h-121z" />
<glyph unicode="&#x2022;" horiz-adv-x="1019" d="M246 698q0 118 69 179t191 61q125 0 196.5 -61.5t71.5 -178.5q0 -116 -72 -178.5t-196 -62.5q-122 0 -191 62t-69 179z" />
<glyph unicode="&#x2026;" horiz-adv-x="1689" d="M119 0v287h327v-287h-327zM682 0v287h328v-287h-328zM1245 0v287h328v-287h-328z" />
<glyph unicode="&#x202f;" horiz-adv-x="391" />
<glyph unicode="&#x2039;" horiz-adv-x="565" d="M59 514l271 416l178 -74l-191 -336l193 -358l-178 -78z" />
<glyph unicode="&#x203a;" horiz-adv-x="563" d="M49 162l193 358l-191 336l178 74l271 -416l-273 -430z" />
<glyph unicode="&#x205f;" horiz-adv-x="489" />
<glyph unicode="&#x20ac;" horiz-adv-x="1282" d="M6 465l33 201h100v65v60h-94l31 202h84q51 267 203.5 402t375.5 135q234 0 362.5 -142t131.5 -380l-291 -25q-7 157 -59.5 222t-153.5 65q-201 0 -256 -277h342l-31 -202h-329v-52v-73h323l-33 -201h-264q17 -107 79.5 -167t152.5 -60q108 0 159 63.5t64 185.5l287 -24 q-63 -488 -529 -488q-213 0 -353 129.5t-177 360.5h-158z" />
<glyph unicode="&#x2122;" horiz-adv-x="1734" d="M18 1331v172h644v-172h-211v-614h-224v614h-209zM743 717v786h291l168 -563l172 563h281v-786h-203v561l-162 -561h-180l-174 561v-561h-193z" />
<glyph unicode="&#x25fc;" horiz-adv-x="1054" d="M0 0v1055h1055v-1055h-1055z" />
</font>
</defs>
</svg>
